# xmcd
#
# Track frame offsets:
#	150
#	24845
#	40497
#	58460
#	84660
#	102722
#	116880
#	131422
#	151110
#
# Disc length: 2199 seconds
#
# Revision: 0
# Processed by: cddbd v1.4PL0 Copyright (c) Steve Scherf et al.
# Submitted via: dBpowerAMP V4.0
#
DISCID=79089509
DTITLE=BluesBurners - Roll With The Punches
DYEAR=2000
DGENRE=Blues
TTITLE0=Idolize You
TTITLE1=Live Wire
TTITLE2=Live Long and Prosper
TTITLE3=Smile
TTITLE4=4am Blues
TTITLE5=Hard Times
TTITLE6=Pack It Up
TTITLE7=Lockin These Doors
TTITLE8=Little Sister
EXTD=
EXTT0=
EXTT1=
EXTT2=
EXTT3=
EXTT4=
EXTT5=
EXTT6=
EXTT7=
EXTT8=
PLAYORDER=
